<?xml version="1.0" encoding="utf-8"?>
<!-- Uploaded to: SVG Repo, www.svgrepo.com, Generator: SVG Repo Mixer Tools -->
<svg width="800px" height="800px" viewBox="-40.14 0 397.274 397.274" xmlns="http://www.w3.org/2000/svg"><defs><style>.a{fill:#ffffff;}.b{fill:#7a7473;}.c{fill:#211715;}.d{fill:#65a0d4;}.e{fill:none;}.f{fill:#c6c6c6;}</style></defs><path class="a" d="M229.007,138.556c-3.743,7.007-12.268,19.358-22.707,25.542a110.569,110.569,0,0,0,.762,11.061s-.551,22.659-29.588,22.659-29.68-22.8-29.68-22.8c.42-3.757.68-7.954.76-11.262a53.209,53.209,0,0,1-13.334-11.706,58.544,58.544,0,0,1-11.157-21.779l-2.2-.338a14.488,14.488,0,0,1-6.746-3.041,21.857,21.857,0,0,1-5.658-7.425,34.427,34.427,0,0,1-3.51-18.249,11.488,11.488,0,0,1,1.2-4.621A8.126,8.126,0,0,1,113,92.709a8.605,8.605,0,0,1,6.885,2.014s-8.184-49.794,57-49.794c61.926,0,58.483,49.794,58.483,49.794a8.6,8.6,0,0,1,6.885-2.014,8.122,8.122,0,0,1,5.842,3.884,11.473,11.473,0,0,1,1.2,4.621,34.427,34.427,0,0,1-3.51,18.249,21.883,21.883,0,0,1-5.658,7.425,14.493,14.493,0,0,1-6.746,3.041s-.42.065-1.157.185c-.553,2.069-1.174,3.812-1.479,4.738A31.843,31.843,0,0,1,229.007,138.556Z"/><path class="b" d="M225.9,29.6c8.849,4.857,13.218,13.266,16.07,20.552,4.176,10.67,5.315,28.621.936,42.681-.217-.051-.438-.093-.66-.126a8.6,8.6,0,0,0-6.885,2.014l-6.476-7.048c-1.453-3.627-2.538-6.516-3.991-10.143a73.967,73.967,0,0,0-4.154-9.222c-1.379-2.251-4.189-1.659-6.763-2.112-8.353-1.472-6.591-3.311-12.792-8.685-8.407,9.053-17.358,12.781-28.861,16.379-6.19,1.937-17.353,3.8-24.977,3.548-7.655,4.429-18.853,7.891-25.729,10.045l-1.742,7.238A8.605,8.605,0,0,0,113,92.709a6.537,6.537,0,0,0-.739.151l-.731-1.928c-4.3-11.343-4.072-29.7-.631-42.595,3.541-13.265,11.854-26.137,23.637-31.515L145.1,9.6c10.29-8.9,40.9-8.261,51.4-4.511,10.019,3.578,17.641,9.92,21.287,17.327Z"/><path class="c" d="M150.194,175.014c.415-3.742.666-7.506.76-11.27a2.421,2.421,0,0,0-2.4-2.4,2.447,2.447,0,0,0-2.4,2.4c-.094,3.764-.345,7.528-.76,11.27a2.406,2.406,0,0,0,2.4,2.4,2.469,2.469,0,0,0,2.4-2.4Z"/><path class="c" d="M203.9,164.19a109.306,109.306,0,0,0,.761,10.969,2.461,2.461,0,0,0,2.4,2.4c1.173-.053,2.558-1.065,2.4-2.4a109.306,109.306,0,0,1-.761-10.969,2.4,2.4,0,1,0-4.8,0Z"/><path class="d" d="M150.3,394.874H96.75v-.03c0-18.459,0-33.233,0-44.053L70.661,239.667c1.567-10.443,5.915-20.124,9.9-22.584a63.4,63.4,0,0,1,8.9-6.139c16.156-8.787,30.237-16.15,48.377-23.762a44.8,44.8,0,0,1,9.212-12.527,90.243,90.243,0,0,0,26.046,18.153c.539.244,1.141.543,1.314,1.109a2.088,2.088,0,0,1-.3,1.471h7.124a2.094,2.094,0,0,1-.3-1.471c.174-.566.776-.865,1.315-1.109a90.243,90.243,0,0,0,26.046-18.153,43.808,43.808,0,0,1,8.573,11.315c21.194,8.526,36.566,16.523,54.492,26.272,3.084,1.677,8.722,4.1,12.463,10.423,7.146,9.346,28.346,75.464,30.05,91.259a115.629,115.629,0,0,1-.174,27.506c-4.553,23.451-30.8,18.363-38.742,18.095a114.685,114.685,0,0,1-14.65-2.25c0,9.991,0,22.574,0,37.6Z"/><path class="e" d="M147.79,208.362a106.5,106.5,0,0,0,26.8,3.78c9.429.023,20.544-1.845,30.454-4.662"/><path class="c" d="M262.694,394.844q0-18.784.01-37.57c0-3.089-4.8-3.094-4.8,0q-.018,18.785-.01,37.57c0,3.089,4.8,3.094,4.8,0Z"/><path class="c" d="M99.15,394.845q0-22.026,0-44.053c0-3.088-4.8-3.093-4.8,0q0,22.027,0,44.053c0,3.089,4.8,3.094,4.8,0Z"/><path class="c" d="M175.429,195.789c.006,16.426.29,32.855.462,49.279q.123,11.662.251,23.324c.034,3.087,4.834,3.1,4.8,0q-.364-33.1-.67-66.2c-.018-2.134-.042-4.268-.043-6.4,0-3.088-4.8-3.093-4.8,0Z"/><path class="c" d="M176,346.011c0,12.961.092,25.922.128,38.883q.014,4.746.018,9.492c0,3.089,4.8,3.094,4.8,0,0-13.983-.08-27.966-.128-41.948-.007-2.142-.018-4.284-.018-6.427,0-3.088-4.8-3.093-4.8,0Z"/><path class="c" d="M96.75,397.274H260.331c3.089,0,3.094-4.8,0-4.8H96.75c-3.089,0-3.094,4.8,0,4.8Z"/><path class="c" d="M217.4,188.755q14.689,5.967,28.893,13.035c8.593,4.272,16.99,8.9,25.475,13.381,4.042,2.133,7.576,4.732,9.98,8.706,1.6,2.639,5.749.23,4.144-2.423A27.177,27.177,0,0,0,275.958,212c-3.78-2.17-7.682-4.16-11.527-6.214-9.191-4.911-18.478-9.641-27.953-13.983q-8.814-4.038-17.807-7.671a2.415,2.415,0,0,0-2.952,1.676,2.459,2.459,0,0,0,1.676,2.952Z"/><path class="c" d="M270.21,235.292c-1.581,9.882-3.534,19.7-5.187,29.568q-2.229,13.308-3.417,26.728c-.492,5.613-.921,11.231-1.33,16.851a2.421,2.421,0,0,0,2.4,2.4,2.447,2.447,0,0,0,2.4-2.4c.648-8.9,1.277-17.825,2.3-26.7,1.119-9.719,2.893-19.355,4.64-28.977.98-5.392,1.958-10.785,2.823-16.2a2.474,2.474,0,0,0-1.676-2.953,2.419,2.419,0,0,0-2.952,1.676Z"/><path class="c" d="M138.969,184.127q-17.875,7.421-35.037,16.372c-5.525,2.868-11.1,5.715-16.494,8.823a79.5,79.5,0,0,0-8.242,5.79,17.383,17.383,0,0,0-4.239,4.64c-3.643,5.7-5.589,12.65-6.61,19.277a2.476,2.476,0,0,0,1.676,2.952,2.417,2.417,0,0,0,2.952-1.676,50.18,50.18,0,0,1,5.272-16.69,20.811,20.811,0,0,1,1.729-2.708c.124-.16.468-.555.686-.786.144-.151.292-.3.444-.442.069-.064.67-.571.311-.288a76.432,76.432,0,0,1,7.642-5.449c5.094-3.091,10.509-5.754,15.788-8.513s10.617-5.452,16-8.023q9.585-4.575,19.4-8.651a2.479,2.479,0,0,0,1.676-2.952,2.414,2.414,0,0,0-2.952-1.676Z"/><path class="a" d="M197.343,215.356c8.364-8.312,13.842-18.38,20.021-28.437a44.582,44.582,0,0,0-9.077-12.264,90.243,90.243,0,0,1-26.046,18.153c-.539.244-1.141.543-1.315,1.109a2.094,2.094,0,0,0,.3,1.471,84.239,84.239,0,0,0,5.388,6.956C190.28,206.829,194.882,212.325,197.343,215.356Z"/><path class="a" d="M157.987,215.356c-8.364-8.312-13.842-18.38-20.021-28.437a44.582,44.582,0,0,1,9.077-12.264,90.243,90.243,0,0,0,26.046,18.153c.539.244,1.141.543,1.314,1.109a2.088,2.088,0,0,1-.3,1.471,84.239,84.239,0,0,1-5.388,6.956C165.05,206.829,160.448,212.325,157.987,215.356Z"/><path class="c" d="M199.04,217.053c6.339-6.344,11.257-13.871,15.9-21.5,1.154-1.9,2.3-3.805,3.451-5.7.651-1.071,1.661-2.225,1.292-3.568a13.6,13.6,0,0,0-1.534-2.923,45.4,45.4,0,0,0-8.16-10.4,2.443,2.443,0,0,0-3.394,0,87.31,87.31,0,0,1-21.808,15.954q-1.4.723-2.817,1.391a6.506,6.506,0,0,0-2.772,1.851c-1.2,1.66-.638,3.664.456,5.211,2.34,3.31,5.031,6.4,7.609,9.526,2.794,3.388,5.617,6.754,8.388,10.162a2.417,2.417,0,0,0,3.394,0,2.455,2.455,0,0,0,0-3.394c-2.859-3.517-5.773-6.989-8.655-10.486-1.6-1.941-3.2-3.884-4.763-5.852-.551-.692-1.1-1.385-1.626-2.1-.285-.39-.728-.851-.67-1.305L183,195.128l-.192.085a4.179,4.179,0,0,1,.481-.256c.3-.148.609-.28.912-.421q.849-.4,1.689-.813,1.809-.9,3.574-1.88,3.735-2.077,7.262-4.5a91.8,91.8,0,0,0,13.259-10.99H206.59a43.221,43.221,0,0,1,8.7,11.779v-2.423c-5.963,9.719-11.518,19.818-19.645,27.951C193.46,215.846,196.853,219.242,199.04,217.053Z"/><path class="c" d="M159.684,213.659c-8.127-8.133-13.682-18.232-19.645-27.951v2.423a43.221,43.221,0,0,1,8.7-11.779h-3.394a91.8,91.8,0,0,0,13.259,10.99q3.436,2.355,7.074,4.4,1.764.988,3.575,1.892.931.465,1.876.906c.249.116.5.225.748.344a3.941,3.941,0,0,1,.486.244c.223.118.212.12-.033,0L172,193.917c.119.918-1.613,2.547-2.17,3.248-1.607,2.021-3.246,4.016-4.888,6.008-2.882,3.5-5.8,6.969-8.655,10.486a2.471,2.471,0,0,0,0,3.394,2.419,2.419,0,0,0,3.394,0c5.12-6.3,10.5-12.4,15.4-18.877a6.5,6.5,0,0,0,1.745-4.073c-.077-2.658-2.794-3.457-4.775-4.431a89.314,89.314,0,0,1-11.572-6.854,84.624,84.624,0,0,1-11.74-9.86,2.445,2.445,0,0,0-3.394,0,45.294,45.294,0,0,0-8.055,10.22,14.257,14.257,0,0,0-1.639,3.1c-.355,1.288.55,2.349,1.176,3.377,1.194,1.962,2.374,3.932,3.567,5.9,4.638,7.629,9.556,15.156,15.895,21.5C158.476,219.241,161.871,215.847,159.684,213.659Z"/><path class="f" d="M2.56,239.63a3.7,3.7,0,0,1,3.621-2.453c28.562,1.009,111.252,5.078,133.3,6.165a5.39,5.39,0,0,1,5.053,4.511c3.273,19.849,15.251,88.786,18.425,106.706l.269,1.522a12.712,12.712,0,0,1-1.8.805,16.107,16.107,0,0,1-5.321.73c-45.917-2.641-86.022-6.816-131.671-9.52a5.675,5.675,0,0,1-5.271-4.713C15.4,321.084,5.713,262.3,2.394,241.457A3.675,3.675,0,0,1,2.56,239.63Z"/><path class="f" d="M159.878,337.01c-.917-5.251-1.946-11.162-3.029-17.4l1.681.342,8.108,1.649c4.7,1.042,23.454,5.9,30.77,8.563l-2.045,1.653c-9.333,7.556-26.407,20.408-30.444,23.223a15.061,15.061,0,0,1-1.694,1.037l-.269-1.519C162.276,350.722,161.193,344.544,159.878,337.01Z"/><path class="a" d="M166.924,321.647c4.707,1.043,23.518,5.919,30.807,8.577,2.216-7.091,5.393-17.164,7.7-24.7q-4.671-1.557-9.4-2.917l-8.755-15.162c-1.522-2.636-3.158-5.39-5.789-6.921-2.579-1.5-5.711-1.594-8.695-1.646a73.444,73.444,0,0,0-13.043.4l-9.794,1.206,7.009,39.375Z"/><path class="c" d="M198.083,327.865c-6.012-2.179-12.25-3.8-18.423-5.446-4.555-1.217-9.12-2.468-13.743-3.408l-6.749-1.373a2.459,2.459,0,0,0-2.952,1.677,2.423,2.423,0,0,0,1.676,2.952c9.9,2.013,19.644,4.438,29.354,7.231,3.207.922,6.422,1.858,9.561,3a2.422,2.422,0,0,0,2.953-1.676,2.45,2.45,0,0,0-1.677-2.952Z"/><path class="c" d="M206.068,303.442c-3.221-1.092-6.422-2.242-9.689-3.19l1.434,1.1L191,289.562c-1.96-3.394-3.768-7.3-6.823-9.873-3.329-2.8-7.5-3.171-11.679-3.251a86.893,86.893,0,0,0-12.361.351,2.475,2.475,0,0,0-2.4,2.4,2.415,2.415,0,0,0,2.4,2.4,78.636,78.636,0,0,1,11.267-.373c3.117.064,6.773-.168,9.379,1.867,2.725,2.128,4.265,5.771,5.951,8.691l6.08,10.529c.679,1.177,1.15,2.19,2.517,2.645,1.034.344,2.089.629,3.125.967,2.119.693,4.22,1.44,6.332,2.155,2.932.994,4.19-3.641,1.276-4.628Z"/><path class="c" d="M162.394,357.849c3.639-2.96,2.126-8.175,1.44-12.087q-.9-5.163-1.806-10.328-2.253-12.906-4.49-25.813-4.509-26-8.95-52.02-.734-4.326-1.456-8.654a10.028,10.028,0,0,0-2.174-5.477,8.509,8.509,0,0,0-6.237-2.565q-8.5-.418-17-.835-25.92-1.267-51.844-2.5-25.716-1.212-51.438-2.32-4.671-.193-9.344-.372a14.007,14.007,0,0,0-5.034.23,6.185,6.185,0,0,0-3.986,6.976C1.1,249,2.3,255.893,3.427,262.789q4.56,27.972,9.2,55.93,1.9,11.47,3.823,22.937c.338,2.011.59,3.931,1.867,5.615,1.925,2.538,4.576,3.132,7.6,3.314q10.424.626,20.839,1.365c27.043,1.906,54.05,4.289,81.091,6.227q10.374.744,20.755,1.391c3.234.2,6.6.694,9.833.351a16.406,16.406,0,0,0,7.893-2.944c6.711-4.7,13.185-9.767,19.67-14.767,3.713-2.864,7.416-5.743,11.063-8.693a2.415,2.415,0,0,0,0-3.394,2.457,2.457,0,0,0-3.394,0c-7.277,5.885-14.734,11.553-22.224,17.164-2.511,1.881-5.014,3.785-7.588,5.581a12.06,12.06,0,0,1-6.708,2.348c-3.228.12-6.547-.321-9.77-.522-26.483-1.654-52.921-3.916-79.375-5.964-13.366-1.034-26.737-2.006-40.118-2.824-2.146-.131-5.07.246-6.125-2.138a19.277,19.277,0,0,1-.854-4.439q-.861-5.125-1.714-10.251-4.479-26.889-8.883-53.792Q8.3,263.05,6.316,250.813q-.738-4.551-1.466-9.1c-.022-.135-.1-.862-.1-.6a1.5,1.5,0,0,1,.214-.968c.424-.614,1.053-.569,1.731-.545q1.989.071,3.979.148c15.408.593,30.811,1.31,46.214,2.024Q83.5,243,110.1,244.3q10.3.5,20.591,1.007l7.378.363c1.316.065,2.631.066,3.519,1.223.8,1.045.814,2.74,1.026,4.01,2.54,15.225,5.179,30.433,7.808,45.643q4.272,24.711,8.592,49.413.357,2.041.716,4.083c.261,1.486.594,3.33-.734,4.41a2.417,2.417,0,0,0,0,3.394,2.457,2.457,0,0,0,3.4,0Z"/><path class="a" d="M54.653,321.373c-.546-2.576-2.67-5.425-6.173-4.787-2.194.4-3.618,2.252-3.784,4.9-.222,3.556.545,7.574,1.815,14.111.975,5.013,2.223,10.815,3.519,15.556,2.078,4.836,5.1,8.013,9.555,8.666,2.73.475,19.778,2.111,27.445,1.778,6.6-.671,16.514-.591,16.444-7.71-2.462-.727-4.638-2.1-5.592-2.261a16.778,16.778,0,0,1-.8-2.508c-1.041-4.377-3.762-12.365-6.437-14.143-2.147-1.428-5.819-1.451-6.9,1.417,0,0-.3.807-.769,2.048-.316-1.229-.637-2.508-.962-3.866a133.076,133.076,0,0,0-4.2-13.644,6.685,6.685,0,0,0-4.445-4.444c-2.3-.805-5.741.667-6.111,3.556l-.406,3.167-1.278-5.69c-1.432-6.377-5.453-8.112-8.39-7.07-3.3,1.171-4,4.7-2.741,9.889"/><path class="c" d="M86.057,337.029c-.2.474.367-.7.12-.141.208-.187.211-.2.009-.057a3.465,3.465,0,0,1,.367-.229q.375-.186.022-.018.207-.071.42-.12.423-.079.019-.016c.149-.013.3-.02.448-.02s.3.007.451.019c-.262-.045-.249-.042.037.008.3.071.584.144.872.243-.435-.15.334.18.426.232.316.18.319.292.068.026A8.461,8.461,0,0,1,91,339.3a27.485,27.485,0,0,1,1.57,3.439c.994,2.576,1.647,5.214,2.416,7.857a10.209,10.209,0,0,0,.822,2.236,2.607,2.607,0,0,0,1.574,1.133c.084.03.787.288.342.1,1.636.685,3.194,1.511,4.888,2.062,2.945.957,4.206-3.676,1.276-4.629-1.814-.59-3.51-1.8-5.37-2.193l1.677,1.676c-.962-2.439-1.43-5.065-2.281-7.55a35.737,35.737,0,0,0-3.364-7.572,8.209,8.209,0,0,0-5.775-4.11,6.459,6.459,0,0,0-7.349,4,2.416,2.416,0,0,0,1.677,2.953,2.461,2.461,0,0,0,2.952-1.677Z"/><path class="c" d="M87.64,346.847c-2.091-8.4-4.089-16.89-6.977-25.059a15.387,15.387,0,0,0-2.326-4.762,8.937,8.937,0,0,0-4.863-3c-3.651-.8-7.888,1.56-8.536,5.374a2.471,2.471,0,0,0,1.676,2.952,2.419,2.419,0,0,0,2.952-1.676c.4-2.355,2.886-2.408,4.518-1.162a5.422,5.422,0,0,1,1.618,2.619c.546,1.5,1.059,3.014,1.55,4.533,2.273,7.032,3.975,14.284,5.76,21.454.746,3,5.376,1.727,4.628-1.276Z"/><path class="c" d="M75.048,346.736c-1.986-8.157-3.976-16.314-5.913-24.483-.811-3.416-1.264-7.315-3.246-10.283-2.025-3.03-5.679-5.1-9.349-3.836-5.558,1.913-5.546,8.028-4.417,12.841.705,3.006,5.335,1.733,4.628-1.276a11.09,11.09,0,0,1-.3-5.309,2.247,2.247,0,0,1,1.856-1.772c.074-.023.5-.089.185-.048s.119,0,.2,0c.139.006.28,0,.419.006.371.008-.374-.081,0-.008a2.613,2.613,0,0,1,1.422.568,7.21,7.21,0,0,1,2.3,3.462c.9,2.7,1.368,5.616,2.028,8.385q1.314,5.52,2.654,11.034,1.452,6,2.913,12c.731,3,5.361,1.729,4.629-1.276Z"/><path class="c" d="M47.957,352.363c2.09,4.768,5.709,8.921,11.074,9.784,3.319.533,6.7.79,10.044,1.071,8.94.753,17.947,1.365,26.841-.187,4.951-.863,9.789-3.369,9.958-8.99.093-3.09-4.707-3.087-4.8,0a3.132,3.132,0,0,1-1.581,2.789A14.112,14.112,0,0,1,94.64,358.4a61.319,61.319,0,0,1-11.055.83,227.179,227.179,0,0,1-22.972-1.666c-.34-.039.55.092-.115-.019-.42-.069-.839-.133-1.253-.233a7.992,7.992,0,0,1-2.881-1.323A14.414,14.414,0,0,1,52.1,349.94a2.417,2.417,0,0,0-3.284-.861,2.463,2.463,0,0,0-.861,3.284Z"/><path class="c" d="M63.048,345.477q-1.8-6.988-3.526-14-.831-3.365-1.636-6.733c-.379-1.595-.62-3.293-1.148-4.846a8.454,8.454,0,0,0-4.96-5.411,7.05,7.05,0,0,0-7.553,1.886c-3.257,3.8-1.839,9.952-1.056,14.4,1.238,7.048,2.671,14.1,4.547,21.008.808,2.977,5.44,1.714,4.628-1.276-1.5-5.524-2.664-11.134-3.75-16.751-.461-2.381-.945-4.767-1.262-7.173a19.746,19.746,0,0,1-.207-5.376c.236-1.557,1.294-2.669,2.93-2.239,1.475.388,2.049,1.989,2.353,3.357.773,3.487,1.629,6.957,2.485,10.425q1.73,7.007,3.526,14c.77,2.989,5.4,1.722,4.629-1.276Z"/><path class="c" d="M281.743,223.877a32.356,32.356,0,0,1,3.3,6.015q.5,1.083.977,2.176.256.586.508,1.176c.066.152.239.561.077.178.109.257.216.515.323.772q1.134,2.727,2.2,5.482c3.534,9.12,6.7,18.385,9.719,27.687,3.06,9.437,5.957,18.932,8.548,28.509,1.023,3.78,2,7.574,2.848,11.4.322,1.457.626,2.918.884,4.387.11.624.2,1.251.3,1.877.026.169-.07-.609-.02-.139.013.119.029.237.043.356.09.776.164,1.554.237,2.331a117.069,117.069,0,0,1,.036,21.1,28.481,28.481,0,0,1-1.877,8.811,17.732,17.732,0,0,1-3.554,5.406,19.9,19.9,0,0,1-10.19,5.411c-1.026.243-2.063.433-3.107.586-.284.041.015,0,.061-.007-.115.015-.231.03-.346.043-.231.027-.461.054-.692.078q-.8.084-1.607.138c-1.951.135-3.908.151-5.861.092-3.031-.091-6.041-.434-9.067-.59-1-.052-1.992-.111-2.987-.224-.3-.034-.606-.073-.908-.11-.334-.04-.3-.041.044.007q-.31-.042-.621-.087-1.1-.156-2.19-.336c-8.275-1.342-16.478-3.177-24.641-5.07-9.39-2.177-18.748-4.518-28.034-7.106-3.794-1.057-7.579-2.154-11.327-3.364-1.453-.469-2.9-.955-4.334-1.482q-.855-.313-1.7-.653c-.136-.054-.27-.112-.406-.166-.154-.061.548.248.139.057-.228-.106-.459-.2-.686-.31-.332-.157-.663-.32-.979-.508-.118-.07-.231-.158-.352-.221-.475-.249.484.42.141.1l.617,2.335c3.422-11.712,7.334-23.284,10.874-34.961.722-2.381,1.468-4.762,2.083-7.173l-2.953,1.676c7.912,1.9,15.866,3.623,23.8,5.419,8.828,2,17.679,3.942,26.452,6.178.7.179,1.4.383,2.1.552a46.134,46.134,0,0,0,5.762.669c4.153.449,8.307.938,12.481,1.148,3.087.154,3.079-4.646,0-4.8-3.631-.182-7.248-.581-10.861-.972a51.506,51.506,0,0,1-7.467-1.035c-3.657-.95-7.339-1.807-11.019-2.665-9.589-2.237-19.2-4.385-28.8-6.557-3.727-.843-7.457-1.674-11.172-2.566a2.439,2.439,0,0,0-2.952,1.677c-1.346,5.282-3.085,10.482-4.7,15.686-2.076,6.681-4.183,13.353-6.273,20.03-.669,2.136-1.354,4.269-1.981,6.418a2.383,2.383,0,0,0,.617,2.335c1.521,1.4,3.717,2.1,5.611,2.8,3.181,1.189,6.434,2.189,9.688,3.158,9.049,2.694,18.2,5.047,27.378,7.269,9,2.181,18.047,4.25,27.156,5.943a155.177,155.177,0,0,0,16.939,2.043c8.129.607,16.829.521,24.2-3.405A22.078,22.078,0,0,0,313.81,348.8c2.981-6.385,3.093-13.793,3.182-20.726a97.864,97.864,0,0,0-1.1-16.9c-.526-3.229-1.275-6.423-2.056-9.6-2.271-9.226-4.971-18.351-7.794-27.421-3.081-9.9-6.349-19.737-9.916-29.467-2.577-7.029-5.133-14.275-8.742-20.858a19.2,19.2,0,0,0-1.493-2.384,2.476,2.476,0,0,0-3.283-.861,2.415,2.415,0,0,0-.861,3.284Z"/><path class="c" d="M237.062,96.42a6.121,6.121,0,0,1,8.587.793c1.211,1.594,1.29,3.87,1.353,5.783a30.937,30.937,0,0,1-.4,6.252c-1.316,7.625-5.366,16.916-13.864,18.367a2.419,2.419,0,0,0-1.676,2.952,2.455,2.455,0,0,0,2.952,1.676c8.562-1.462,13.669-9.454,16.1-17.152a36.163,36.163,0,0,0,1.636-12.986c-.254-4.222-1.467-8.21-5.343-10.435a11.1,11.1,0,0,0-12.749,1.356,2.421,2.421,0,0,0,0,3.394,2.448,2.448,0,0,0,3.394,0Z"/><path class="c" d="M230.892,123.523a29.187,29.187,0,0,1-1.4,7.425c-.271.9-.568,1.795-.867,2.688-.077.229-.151.46-.235.687-.035.1-.079.19-.112.287-.171.5.14-.311.031-.07a58.911,58.911,0,0,1-3.839,7.034,68.892,68.892,0,0,1-15.316,17.673,29.311,29.311,0,0,1-11.431,5.794c-3.01.69-1.736,5.319,1.276,4.628,8.577-1.967,15.756-8.157,21.411-14.626a74.293,74.293,0,0,0,11.829-17.6,37.344,37.344,0,0,0,3.453-13.922c.1-3.09-4.7-3.086-4.8,0Z"/><path class="c" d="M121.577,93.026a11.061,11.061,0,0,0-11.186-2.084c-4.14,1.637-6.219,5.107-6.748,9.408a35.145,35.145,0,0,0,6.155,24.318c2.811,3.8,6.68,6.765,11.428,7.575a2.469,2.469,0,0,0,2.952-1.676,2.419,2.419,0,0,0-1.676-2.952c-8.5-1.451-12.549-10.743-13.864-18.367a30.937,30.937,0,0,1-.4-6.252c.063-1.911.143-4.192,1.353-5.783a6.121,6.121,0,0,1,8.587-.793,2.461,2.461,0,0,0,3.394,0,2.421,2.421,0,0,0,0-3.394Z"/><path class="c" d="M119.9,122.646a69.173,69.173,0,0,0,8.668,24.192c4.988,8.2,12.232,15.618,20.777,20.11a40,40,0,0,0,14.59,4.4,2.416,2.416,0,0,0,2.4-2.4,2.453,2.453,0,0,0-2.4-2.4c-17.359-1.793-30.872-17.343-36.316-32.987a77.08,77.08,0,0,1-3.091-12.191,2.419,2.419,0,0,0-2.952-1.676,2.454,2.454,0,0,0-1.676,2.952Z"/><path class="c" d="M219.852,21.2c-5.36-10.709-17.134-17.92-28.716-19.894a92.428,92.428,0,0,0-32.758.316c-5.3,1.033-10.8,2.717-14.98,6.276a2.423,2.423,0,0,0,0,3.395,2.451,2.451,0,0,0,3.394,0c.164-.14.328-.279.5-.411-.309.24.118-.078.222-.15.41-.281.825-.55,1.254-.8a25.052,25.052,0,0,1,2.69-1.346,42.287,42.287,0,0,1,6.45-1.965,77.213,77.213,0,0,1,15.53-1.714c9.6-.2,19.073.316,27.736,4.81,6.065,3.146,11.443,7.728,14.536,13.908,1.383,2.763,5.525.335,4.145-2.423Z"/><path class="c" d="M133.32,14.75c-10.357,4.8-17.633,14.578-21.962,24.879-4.44,10.562-5.861,22.388-5.371,33.779a59.347,59.347,0,0,0,3.224,18.162,2.466,2.466,0,0,0,2.952,1.676,2.419,2.419,0,0,0,1.676-2.952c-3.655-9.793-3.712-21-2.525-31.262,1.214-10.494,4.693-20.917,11.223-29.333a36.072,36.072,0,0,1,13.206-10.805,2.42,2.42,0,0,0,.861-3.283,2.454,2.454,0,0,0-3.284-.861Z"/><path class="c" d="M224.693,31.674c7.232,4.037,11.721,11,14.732,18.525,3.143,7.861,4.078,16.551,3.841,24.962a65.307,65.307,0,0,1-2.295,15.777c-.834,2.98,3.8,4.252,4.628,1.277a74.863,74.863,0,0,0,1.764-29.99,55.859,55.859,0,0,0-8.695-23.879A34.128,34.128,0,0,0,227.115,27.53c-2.7-1.507-5.123,2.637-2.422,4.144Z"/><path class="c" d="M201.259,53.825a51.222,51.222,0,0,1-18.443,13.738,89.245,89.245,0,0,1-21.781,6.407,73.728,73.728,0,0,1-13.487,1.078c-3.09-.072-3.089,4.728,0,4.8A77.632,77.632,0,0,0,160.34,78.9a85.238,85.238,0,0,0,11.786-2.439c7.614-2.221,15.32-5.084,21.894-9.6a54.833,54.833,0,0,0,10.633-9.644,2.463,2.463,0,0,0,0-3.394,2.421,2.421,0,0,0-3.394,0Z"/><path class="c" d="M161.307,65.005a79.454,79.454,0,0,1-13.931,9,158.53,158.53,0,0,1-17.345,8.025c-2.974,1.161-5.986,2.23-9.047,3.14-2.954.878-1.7,5.512,1.276,4.628a138.432,138.432,0,0,0,17.458-6.685,141.257,141.257,0,0,0,17.218-9.1A67.406,67.406,0,0,0,164.7,68.4a2.421,2.421,0,0,0,0-3.394,2.45,2.45,0,0,0-3.394,0Z"/><path class="c" d="M204.693,64.627a12.716,12.716,0,0,0,6.246,3.384,29.878,29.878,0,0,0,5.167.8c.95.068,2.055.013,2.641.833a21.935,21.935,0,0,1,1.947,3.925c.591,1.341,1.132,2.7,1.676,4.063,1.42,3.552,2.785,7.126,4.2,10.678a2.474,2.474,0,0,0,2.952,1.676,2.418,2.418,0,0,0,1.677-2.952c-1.458-3.647-2.861-7.316-4.32-10.963a56.045,56.045,0,0,0-3.992-8.85,6.253,6.253,0,0,0-4.121-2.9c-1.518-.315-3.081-.232-4.6-.52-.881-.168-1.759-.351-2.621-.6-.3-.085-.594-.176-.886-.278.021.007-.715-.285-.43-.158a7.664,7.664,0,0,1-1.382-.8c.4.293-.121-.11-.165-.151-.2-.193-.405-.385-.6-.587-2.154-2.221-5.546,1.175-3.394,3.395Z"/><path class="c" d="M83.06,290.965c.2.009.394.026.592.039-.537-.037-.1-.019.046.012.355.076.706.152,1.053.261.126.04.248.088.374.127.6.192-.407-.232.153.064a11.4,11.4,0,0,1,1.025.583s.513.384.233.16.208.192.208.192a8.852,8.852,0,0,1,.682.715c-.36-.412.05.078.1.155.093.14.18.284.263.431s.158.3.234.453c-.237-.47.065.185.1.3a7.032,7.032,0,0,1,.274,1.164c-.062-.44-.012-.041-.012.041,0,.237.022.472.019.709a3.759,3.759,0,0,0-.027.528c.047.345.124-.5-.006.06a10.93,10.93,0,0,1-.3,1.083c.2-.58-.121.2-.224.372-.09.146-.188.285-.288.423.338-.464.105-.135,0-.033-.224.213-.436.429-.673.628.059-.05.433-.289.082-.076-.193.116-.377.244-.574.353-.153.086-.976.433-.348.2-.269.1-.536.2-.812.282s-.555.153-.837.212c-.17.036-.34.063-.511.1-.536.1.455-.031-.045,0a15.278,15.278,0,0,1-1.853.045c-.163-.009-.691-.141-.8-.07.2-.125.5.089.072,0-.241-.051-.479-.1-.715-.171-.167-.049-.33-.107-.493-.168-.361-.136.461.277-.09-.051-.3-.177-.6-.341-.885-.533.436.291-.1-.085-.16-.14q-.192-.173-.372-.359c-.12-.124-.233-.254-.346-.384.334.383-.116-.174-.177-.27-.094-.147-.183-.3-.265-.45-.034-.062-.311-.688-.114-.19a7.245,7.245,0,0,1-.318-1.019c0,.014-.123-.679-.071-.322s-.021-.356-.02-.34q-.015-.338,0-.675c0-.1.1-.747.016-.284a7.406,7.406,0,0,1,.355-1.309c-.182.488.079-.133.114-.2.1-.183.216-.352.324-.529.326-.534-.312.281.126-.158.143-.144.274-.3.422-.437s.3-.272.456-.4c-.412.323.072-.03.169-.092a8.747,8.747,0,0,1,1.062-.571c-.514.236.089-.024.172-.052q.282-.1.572-.176t.578-.138c.128-.027.257-.05.386-.071-.284.034-.335.041-.155.021.412,0,.82-.057,1.234-.048a2.4,2.4,0,1,0,0-4.8,10.389,10.389,0,0,0-10.049,6.268,9.666,9.666,0,0,0,4.249,11.648c3.226,1.819,7.475,1.6,10.79.146a8.767,8.767,0,0,0,3.941-3.389,9.435,9.435,0,0,0,1.053-6.381c-.727-4.9-5.245-8.083-9.984-8.292a2.417,2.417,0,0,0-2.4,2.4A2.452,2.452,0,0,0,83.06,290.965Z"/><path class="c" d="M200.677,118.882c8.333.243,17.784.053,23.043-7.5,3.973-5.707,4.8-15.765-.735-20.8a8.288,8.288,0,0,0-3.174-1.312q-1.71-.522-3.453-.922a55.883,55.883,0,0,0-6.828-1.111,50.288,50.288,0,0,0-13.879.537c-3.906.689-8.693,1.445-10.974,5.045a15.42,15.42,0,0,0-2.074,8.979,19.186,19.186,0,0,0,5.5,12.434c3.354,3.146,8.067,4.483,12.573,4.655,3.089.119,3.084-4.682,0-4.8-3.567-.136-7.523-1.22-9.925-4.026a14.451,14.451,0,0,1-3.315-10.7,12.681,12.681,0,0,1,.836-3.1c.732-1.635,1.31-1.939,2.933-2.454a43.968,43.968,0,0,1,13.836-2.024,49.134,49.134,0,0,1,15.608,2.812l-1.059-.617c3.821,3.918,2.941,11.154-.208,15.256-4.277,5.572-12.458,5.037-18.706,4.855C197.587,113.992,197.59,118.792,200.677,118.882Z"/><path class="c" d="M135.946,94.588a47.681,47.681,0,0,1,22.607-2.374A44.543,44.543,0,0,1,164.3,93.47a15.227,15.227,0,0,1,2.6.839,4.7,4.7,0,0,1,.713.685,10.173,10.173,0,0,1,1.611,6.041,14.827,14.827,0,0,1-3.212,8.822c-1.935,2.4-5,3.552-7.958,4.035a43.266,43.266,0,0,1-10.546.112c-3.167-.29-6.6-1.179-8.994-3.386-4.239-3.9-5.791-12.257-1.51-16.647,2.158-2.213-1.233-5.61-3.394-3.394-5.229,5.361-4.895,14.679-.829,20.666,5.111,7.524,14.456,7.908,22.71,7.652a20.715,20.715,0,0,0,11.241-3.262,17.8,17.8,0,0,0,6.673-10.158,17.287,17.287,0,0,0-.238-9.916,10.912,10.912,0,0,0-2.518-4.354c-1.484-1.435-3.574-1.95-5.51-2.488a51.5,51.5,0,0,0-30.47,1.243,2.46,2.46,0,0,0-1.677,2.952,2.422,2.422,0,0,0,2.953,1.676Z"/><path class="c" d="M174.233,102.233c.5-.249-.543.193.007-.009.181-.067.366-.125.552-.177a12.073,12.073,0,0,1,1.191-.256c.178-.031.52-.017-.163.017.093,0,.187-.023.279-.033q.357-.039.715-.063c.492-.033.986-.047,1.479-.044q.708,0,1.413.057.363.027.725.067c.175.02.529.119-.143-.023.09.019.185.026.276.041a13.164,13.164,0,0,1,1.29.264q.262.068.519.15c.2.065.909.363.092.009a2.622,2.622,0,0,0,1.849.242,2.45,2.45,0,0,0,1.435-1.1c.546-1.035.369-2.751-.861-3.283a16.779,16.779,0,0,0-6.595-1.221,14.283,14.283,0,0,0-6.482,1.221,2.414,2.414,0,0,0-.861,3.283,2.458,2.458,0,0,0,3.283.861Z"/><path class="c" d="M228.468,99.444c.089-.04.179-.079.268-.117l-.573.242a24.69,24.69,0,0,1,4.9-1.549,2.424,2.424,0,0,0,1.435-1.1,2.456,2.456,0,0,0,.242-1.85,2.429,2.429,0,0,0-1.1-1.434,2.685,2.685,0,0,0-1.85-.242,26.49,26.49,0,0,0-5.745,1.908,2.4,2.4,0,0,0-1.1,1.435,2.452,2.452,0,0,0,.242,1.849,2.421,2.421,0,0,0,1.434,1.1l.638.086a2.4,2.4,0,0,0,1.211-.328Z"/><path class="c" d="M129.945,95.3a26.472,26.472,0,0,0-5.745-1.908,2.577,2.577,0,0,0-1.85.242,2.4,2.4,0,0,0-.861,3.284,2.373,2.373,0,0,0,1.435,1.1,24.69,24.69,0,0,1,4.9,1.549l-.573-.242c.089.038.179.077.268.117a1.794,1.794,0,0,0,.892.285,1.823,1.823,0,0,0,.957-.043,2.445,2.445,0,0,0,1.434-1.1,2.418,2.418,0,0,0,.242-1.849,2.328,2.328,0,0,0-1.1-1.435Z"/><path class="c" d="M168.522,140.762a22.557,22.557,0,0,0,10.868,2.506c3.846-.025,7.784-.76,10.871-3.165a2.413,2.413,0,0,0,0-3.394,2.461,2.461,0,0,0-3.394,0c.7-.544.05-.054-.128.06-.223.143-.453.275-.688.4-.142.075-.92.417-.368.195-.312.125-.628.241-.948.344a17.114,17.114,0,0,1-5.7.762,17.827,17.827,0,0,1-5.443-.733c-.347-.1-.686-.227-1.028-.345-.112-.039-.22-.088-.332-.129.6.219.089.039-.026-.015-.426-.2-.844-.409-1.26-.629a2.451,2.451,0,0,0-3.283.861,2.425,2.425,0,0,0,.861,3.284Z"/><path class="c" d="M178.392,114.871a52.076,52.076,0,0,1,1.228,5.615l-.086-.638a3.408,3.408,0,0,1,.021.775l.086-.638a1.893,1.893,0,0,1-.086.349l.242-.573a1.4,1.4,0,0,1-.123.224l.375-.486a1.161,1.161,0,0,1-.183.181l.486-.375a3.565,3.565,0,0,1-.445.235l.573-.242a3.267,3.267,0,0,1-.749.219l.638-.086a3.014,3.014,0,0,1-.7,0l.638.086c-.265-.037-.526-.1-.791-.138a2.655,2.655,0,0,0-1.849.242,2.4,2.4,0,0,0-.861,3.284,2.3,2.3,0,0,0,1.434,1.1c.561.076,1.106.22,1.677.245a5.276,5.276,0,0,0,2.417-.567,3.388,3.388,0,0,0,1.907-2.243,5.849,5.849,0,0,0-.027-2.471c-.306-1.809-.724-3.6-1.189-5.376a2.4,2.4,0,1,0-4.629,1.276Z"/><path class="c" d="M148.237,99.1c-.938,3.047-.327,10.058,5.447,10.654,7.631-.045,8.037-8.521,5.468-12.506C157.049,93.98,150.864,92.623,148.237,99.1Z"/><path class="c" d="M209.345,99.1c.938,3.047.327,10.058-5.447,10.654-7.631-.046-8.037-8.521-5.469-12.507C200.532,93.98,206.717,92.623,209.345,99.1Z"/></svg>